<?xml version="1.0" encoding="UTF-8"?>
<svg version="1.1" xmlns="http://www.w3.org/2000/svg" width="512" height="176">
<path d="M0 0 C168.96 0 337.92 0 512 0 C512 58.08 512 116.16 512 176 C343.04 176 174.08 176 0 176 C0 117.92 0 59.84 0 0 Z " fill="#FDFDFE" transform="translate(0,0)"/>
<path d="M0 0 C0.89129105 -0.0071553 1.78258209 -0.01431061 2.70088196 -0.02168274 C3.66615311 -0.02437164 4.63142426 -0.02706055 5.62594604 -0.02983093 C7.16598549 -0.03968773 7.16598549 -0.03968773 8.73713684 -0.04974365 C12.13090087 -0.06943407 15.5246207 -0.08113063 18.91842651 -0.09111023 C20.08059566 -0.09518576 21.24276482 -0.09926128 22.44015121 -0.10346031 C28.59306408 -0.12430421 34.74595476 -0.13861249 40.89889526 -0.147995 C47.23709793 -0.15904794 53.57494843 -0.1934403 59.91302681 -0.23316669 C64.80141835 -0.25937856 69.68972659 -0.26769098 74.57818222 -0.27127647 C76.91362762 -0.27613158 79.24906957 -0.28771465 81.58444595 -0.30631447 C84.86288182 -0.3307996 88.14041449 -0.3297233 91.41891479 -0.32279968 C92.37204056 -0.33560974 93.32516632 -0.3484198 94.30717468 -0.36161804 C104.43499957 -0.28418467 114.11564265 2.91605061 121.41061401 10.14717102 C128.00572743 18.32863688 129.71059064 25.43260861 129.70114136 35.76728821 C129.70785858 36.8249942 129.71457581 37.8827002 129.72149658 38.97245789 C129.7404666 42.4630353 129.74440048 45.95342029 129.74655151 49.44404602 C129.7529807 51.87774229 129.75970915 54.31143779 129.76672363 56.74513245 C129.77869433 61.8459604 129.78240472 66.94672064 129.78121948 72.04756165 C129.78101644 78.56857875 129.80830465 85.08915933 129.8427639 91.61007309 C129.86505476 96.63740514 129.86905632 101.66463257 129.86800003 106.69200897 C129.87035322 109.0952581 129.87916073 111.49851024 129.89466476 113.90171051 C129.91436578 117.27127198 129.90846951 120.63989762 129.89645386 124.00947571 C129.90769287 124.99267792 129.91893188 125.97588013 129.93051147 126.98887634 C129.8426779 136.73270968 126.82712132 145.02462944 119.84254456 151.94674683 C108.21760559 162.46505585 94.76531635 160.97978221 79.98483276 160.83857727 C77.50768754 160.83499576 75.03053819 160.83364368 72.5533905 160.83441162 C67.38143118 160.82973716 62.21010076 160.80501828 57.03829956 160.76460266 C50.41627815 160.71350162 43.79494316 160.70216465 37.17274761 160.70443821 C32.06572445 160.70362198 26.95885065 160.68716258 21.85187721 160.66543388 C19.40989116 160.6559059 16.96788825 160.64997916 14.52588463 160.64775276 C11.11566766 160.64123515 7.70617319 160.61494949 4.29611206 160.58296204 C2.79121719 160.58500137 2.79121719 160.58500137 1.25592041 160.58708191 C-7.79533476 160.46317628 -14.64783409 157.79740872 -21.37844849 151.46357727 C-28.97496355 143.43066666 -31.19348292 134.88231822 -31.13870239 124.01289368 C-31.14892426 122.94806259 -31.15914612 121.88323151 -31.16967773 120.78613281 C-31.19729498 117.29426586 -31.1955698 113.80319616 -31.19094849 110.31123352 C-31.1987319 107.86562308 -31.20740319 105.42001532 -31.21691895 102.97441101 C-31.23180569 97.85873128 -31.23128832 92.7433277 -31.22073364 87.62763977 C-31.20914799 81.09546387 -31.24301376 74.56442285 -31.28942299 68.03243446 C-31.31899005 62.98439507 -31.32062866 57.93662613 -31.31440353 52.88851547 C-31.3154253 50.48132962 -31.32581273 48.07412771 -31.34602737 45.66702652 C-31.53800584 19.61198891 -31.53800584 19.61198891 -22.54852295 9.95469666 C-16.03912636 3.75113665 -9.08501019 0.05041119 0 0 Z " fill="#2B3F6F" transform="translate(51.589385986328125,7.8528289794921875)"/>
<path d="M0 0 C0.89129105 -0.0071553 1.78258209 -0.01431061 2.70088196 -0.02168274 C3.66615311 -0.02437164 4.63142426 -0.02706055 5.62594604 -0.02983093 C7.16598549 -0.03968773 7.16598549 -0.03968773 8.73713684 -0.04974365 C12.13090087 -0.06943407 15.5246207 -0.08113063 18.91842651 -0.09111023 C20.08059566 -0.09518576 21.24276482 -0.09926128 22.44015121 -0.10346031 C28.59306408 -0.12430421 34.74595476 -0.13861249 40.89889526 -0.147995 C47.23709793 -0.15904794 53.57494843 -0.1934403 59.91302681 -0.23316669 C64.80141835 -0.25937856 69.68972659 -0.26769098 74.57818222 -0.27127647 C76.91362762 -0.27613158 79.24906957 -0.28771465 81.58444595 -0.30631447 C84.86288182 -0.3307996 88.14041449 -0.3297233 91.41891479 -0.32279968 C92.37204056 -0.33560974 93.32516632 -0.3484198 94.30717468 -0.36161804 C104.43499957 -0.28418467 114.11564265 2.91605061 121.41061401 10.14717102 C127.03058875 17.11894369 129.66940984 23.39035925 129.63766479 32.43769836 C129.63795685 33.1408316 129.6382489 33.84396484 129.6385498 34.56840515 C129.63716563 36.87343544 129.62164799 39.17813528 129.60592651 41.48310852 C129.60219313 43.0887891 129.59934769 44.69447196 129.59735107 46.30015564 C129.58974022 50.51204291 129.57011381 54.72379073 129.54794312 58.93562317 C129.52742962 63.23919285 129.51833762 67.54278522 129.50827026 71.84638977 C129.48686535 80.28004728 129.45276041 88.71359177 129.41061401 97.14717102 C128.29686401 97.62154602 127.18311401 98.09592102 126.03561401 98.58467102 C124.14350407 99.40023565 122.25348692 100.22573457 120.41061401 101.14717102 C118.52422282 101.23208602 116.63482887 101.25436402 114.74655151 101.24482727 C113.06432495 101.23999329 113.06432495 101.23999329 111.34811401 101.23506165 C110.17248901 101.22668274 108.99686401 101.21830383 107.78561401 101.20967102 C106.60225464 101.2051593 105.41889526 101.20064758 104.19967651 101.19599915 C101.26993895 101.18418569 98.34030129 101.1677136 95.41061401 101.14717102 C95.41061401 104.44717102 95.41061401 107.74717102 95.41061401 111.14717102 C97.06061401 111.47717102 98.71061401 111.80717102 100.41061401 112.14717102 C100.41061401 113.79717102 100.41061401 115.44717102 100.41061401 117.14717102 C98.43061401 117.14717102 96.45061401 117.14717102 94.41061401 117.14717102 C94.41061401 107.24717102 94.41061401 97.34717102 94.41061401 87.14717102 C103.98061401 87.14717102 113.55061401 87.14717102 123.41061401 87.14717102 C123.08061401 67.34717102 122.75061401 47.54717102 122.41061401 27.14717102 C120.14391069 26.01381936 118.92672527 26.0237329 116.41168213 26.0269165 C115.57593155 26.02554184 114.74018097 26.02416718 113.87910461 26.02275085 C112.96057205 26.02634613 112.04203949 26.02994141 111.09567261 26.03364563 C109.6468293 26.03342659 109.6468293 26.03342659 108.16871643 26.03320312 C104.96547221 26.03390165 101.76228562 26.04169124 98.55905151 26.04951477 C96.34230582 26.05137916 94.12555972 26.05280297 91.90881348 26.05380249 C86.06607939 26.05762598 80.22337004 26.06745485 74.38064575 26.07850647 C68.42188858 26.0887242 62.46312742 26.09330089 56.50436401 26.0983429 C44.80643646 26.10907725 33.10852729 26.12615167 21.41061401 26.14717102 C20.48052511 28.93743772 20.22362632 30.91246644 20.09420776 33.81513977 C20.03136597 35.15415344 20.03136597 35.15415344 19.96725464 36.5202179 C19.92793823 37.44898743 19.88862183 38.37775696 19.84811401 39.33467102 C19.78333862 40.74522766 19.78333862 40.74522766 19.71725464 42.1842804 C19.61122737 44.50509956 19.50916373 46.82602427 19.41061401 49.14717102 C18.50706177 49.17222717 17.60350952 49.19728333 16.6725769 49.22309875 C13.33097121 49.31804419 9.98955149 49.41728723 6.64816284 49.51948547 C5.19997162 49.56288732 3.75172747 49.60455846 2.30343628 49.64448547 C0.22571842 49.70206164 -1.85173172 49.7657913 -3.92922974 49.83076477 C-5.80662842 49.88575134 -5.80662842 49.88575134 -7.72195435 49.94184875 C-10.48569103 49.82521008 -10.48569103 49.82521008 -11.58938599 51.14717102 C-11.74781248 53.21801822 -11.84063021 55.29395131 -11.90579224 57.36982727 C-11.94768677 58.62988586 -11.9895813 59.88994446 -12.03274536 61.18818665 C-12.07256195 62.52867838 -12.11227412 63.86917322 -12.15188599 65.20967102 C-12.19506641 66.55408625 -12.23868054 67.89848762 -12.28274536 69.24287415 C-12.38923956 72.54419443 -12.49125059 75.84559338 -12.58938599 79.14717102 C-17.070379 78.6602255 -20.51129865 78.00586705 -24.40188599 75.70967102 C-25.1508313 75.27783508 -25.89977661 74.84599915 -26.67141724 74.40107727 C-28.58938599 73.14717102 -28.58938599 73.14717102 -30.58938599 71.14717102 C-30.87026978 69.20310974 -30.87026978 69.20310974 -30.91165161 66.7960968 C-30.9308667 65.89400482 -30.95008179 64.99191284 -30.96987915 64.06248474 C-30.97837891 63.08238434 -30.98687866 62.10228394 -30.99563599 61.09248352 C-31.00703613 60.08055939 -31.01843628 59.06863525 -31.03018188 58.02604675 C-31.04910993 55.87570894 -31.06216097 53.72531275 -31.06985474 51.5749054 C-31.08910742 48.31927628 -31.15104706 45.06626054 -31.21438599 41.81123352 C-31.3404638 29.50741403 -31.36413746 19.4347071 -22.54763794 9.95088196 C-16.03315062 3.75268076 -9.08637717 0.05041877 0 0 Z " fill="#7F357F" transform="translate(51.589385986328125,7.8528289794921875)"/>
<path d="M0 0 C1.41279236 -0.00569504 1.41279236 -0.00569504 2.85412598 -0.01150513 C5.9674611 -0.01891478 9.07986306 0.00247647 12.19311523 0.02490234 C14.35497427 0.02728643 16.51683539 0.02819217 18.67869568 0.02767944 C23.20894341 0.03080808 27.73887481 0.04737968 32.26904297 0.07421875 C38.08224017 0.10821882 43.89508999 0.11584679 49.70837498 0.11432838 C54.17184275 0.11487163 58.63523425 0.12583123 63.09867668 0.14033127 C65.24253703 0.14670476 67.38640603 0.15063945 69.53027534 0.15211868 C72.52293822 0.15644465 75.51522924 0.17393004 78.5078125 0.1953125 C79.39776413 0.19440613 80.28771576 0.19349976 81.20463562 0.19256592 C82.42641006 0.20536087 82.42641006 0.20536087 83.67286682 0.21841431 C84.38021752 0.221766 85.08756823 0.22511768 85.8163538 0.22857094 C87.68920898 0.48583984 87.68920898 0.48583984 90.68920898 2.48583984 C91.04997253 5.00418091 91.04997253 5.00418091 91.02978516 8.22070312 C91.02955856 9.42179718 91.02933197 10.62289124 91.02909851 11.86038208 C91.01361465 13.16248627 90.9981308 14.46459045 90.98217773 15.80615234 C90.97658314 17.1485039 90.9723124 18.49086157 90.96931458 19.83322144 C90.95785484 23.36794926 90.92837857 26.90230782 90.89520264 30.43688965 C90.86452571 34.04299839 90.8506501 37.64916852 90.83569336 41.25537109 C90.8051005 48.33252024 90.74638552 55.40865511 90.68920898 62.48583984 C81.11920898 62.48583984 71.54920898 62.48583984 61.68920898 62.48583984 C61.25170898 53.04833984 61.25170898 53.04833984 61.12109375 50.07006836 C61.08298584 49.30106201 61.04487793 48.53205566 61.00561523 47.73974609 C60.96895752 46.94898682 60.9322998 46.15822754 60.89453125 45.34350586 C60.88357642 43.47182544 60.88357642 43.47182544 59.68920898 42.48583984 C57.76442086 42.32777454 55.83421688 42.23470485 53.90405273 42.16943359 C52.73422852 42.12753906 51.5644043 42.08564453 50.35913086 42.04248047 C49.12743164 42.00316406 47.89573242 41.96384766 46.62670898 41.92333984 C45.39114258 41.88015625 44.15557617 41.83697266 42.88256836 41.79248047 C39.81823563 41.68599786 36.75381825 41.5839856 33.68920898 41.48583984 C33.64022461 40.41462891 33.59124023 39.34341797 33.54077148 38.23974609 C33.46575604 36.84258345 33.39020769 35.44544935 33.31420898 34.04833984 C33.28327148 33.34128906 33.25233398 32.63423828 33.22045898 31.90576172 C33.11640269 30.09344796 32.91001006 28.28765996 32.68920898 26.48583984 C30.3833753 25.332923 28.99054011 25.33186647 26.4230957 25.28051758 C25.54233368 25.26057236 24.66157166 25.24062714 23.75411987 25.22007751 C22.80199615 25.20336502 21.84987244 25.18665253 20.86889648 25.16943359 C19.8951004 25.1486525 18.92130432 25.1278714 17.91799927 25.10646057 C14.80014252 25.04095387 11.68219995 24.98207487 8.56420898 24.92333984 C6.45352294 24.88015569 4.34284565 24.83654144 2.23217773 24.79248047 C-2.94872052 24.68527138 -8.12970458 24.58350707 -13.31079102 24.48583984 C-13.42717137 21.23614215 -13.49809682 17.98698154 -13.56079102 14.73583984 C-13.59430664 13.81544922 -13.62782227 12.89505859 -13.66235352 11.94677734 C-13.67524414 11.05732422 -13.68813477 10.16787109 -13.70141602 9.25146484 C-13.72236328 8.43452148 -13.74331055 7.61757813 -13.76489258 6.77587891 C-12.29701683 -0.62663427 -6.14726707 -0.07780954 0 0 Z " fill="#FBFAFB" transform="translate(84.310791015625,32.51416015625)"/>
<path d="M0 0 C22.44 0 44.88 0 68 0 C68 3.63 68 7.26 68 11 C66.94039063 11.04898438 65.88078125 11.09796875 64.7890625 11.1484375 C63.40101503 11.22346709 62.01299549 11.29901485 60.625 11.375 C59.57699219 11.42140625 59.57699219 11.42140625 58.5078125 11.46875 C54.29814173 11.59499498 54.29814173 11.59499498 51 14 C50.62677573 17.10756015 50.62677573 17.10756015 50.5859375 20.7578125 C50.55032715 21.97098145 50.5147168 23.18415039 50.47802734 24.43408203 C50.44402832 25.98208496 50.4100293 27.53008789 50.375 29.125 C50.25125 34.03375 50.1275 38.9425 50 44 C33.5 44 17 44 0 44 C0 29.48 0 14.96 0 0 Z " fill="#FEFEFE" transform="translate(45,63)"/>
<path d="M0 0 C13.2 0 26.4 0 40 0 C40 17.49 40 34.98 40 53 C26.8 53 13.6 53 0 53 C0 35.51 0 18.02 0 0 Z " fill="#FAF9FA" transform="translate(101,85)"/>
<path d="M0 0 C1.37152222 -0.00945648 1.37152222 -0.00945648 2.77075195 -0.019104 C3.76034912 -0.01505554 4.74994629 -0.01100708 5.76953125 -0.00683594 C6.78297607 -0.00874939 7.7964209 -0.01066284 8.84057617 -0.01263428 C10.98584237 -0.01399685 13.13111678 -0.01029541 15.27636719 -0.00195312 C18.56854697 0.00874524 21.86018103 -0.00184613 25.15234375 -0.01464844 C27.23307413 -0.01332686 29.31380416 -0.01076449 31.39453125 -0.00683594 C32.38412842 -0.0108844 33.37372559 -0.01493286 34.39331055 -0.019104 C35.30765869 -0.01279968 36.22200684 -0.00649536 37.1640625 0 C38.37412964 0.00238678 38.37412964 0.00238678 39.60864258 0.00482178 C41.58203125 0.25878906 41.58203125 0.25878906 43.58203125 2.25878906 C43.82254028 5.00491333 43.82254028 5.00491333 43.80908203 8.54443359 C43.80937408 9.1884613 43.80966614 9.83248901 43.80996704 10.49603271 C43.80857199 12.62802533 43.79300299 14.75966988 43.77734375 16.89160156 C43.77361423 18.36847747 43.77076697 19.84535585 43.76876831 21.32223511 C43.76112699 25.21196304 43.74147433 29.10154194 43.71936035 32.99121094 C43.6989126 36.95928939 43.68976889 40.92739188 43.6796875 44.89550781 C43.65822881 52.68333622 43.62408697 60.47104177 43.58203125 68.25878906 C42.00235318 68.93407129 40.41811222 69.598686 38.83203125 70.25878906 C37.9503125 70.63003906 37.06859375 71.00128906 36.16015625 71.38378906 C33.58203125 72.25878906 33.58203125 72.25878906 29.58203125 72.25878906 C29.58203125 71.26878906 29.58203125 70.27878906 29.58203125 69.25878906 C29.15970215 69.75757568 28.73737305 70.2563623 28.30224609 70.77026367 C24.16839143 75.05569658 21.19601663 76.75285577 15.18359375 77.01269531 C12.85736232 76.98503344 10.53131556 76.92038646 8.20703125 76.82128906 C7.01980469 76.80646484 5.83257812 76.79164063 4.609375 76.77636719 C-4.09390716 76.58285065 -4.09390716 76.58285065 -6.41796875 74.25878906 C-6.67193604 71.29833984 -6.67193604 71.29833984 -6.67675781 67.45410156 C-6.68026245 66.75476501 -6.68376709 66.05542847 -6.68737793 65.3348999 C-6.69619751 63.01776268 -6.69034545 60.70092952 -6.68359375 58.38378906 C-6.68494034 56.77718039 -6.68688082 55.17057212 -6.68939209 53.56396484 C-6.69234365 50.19462205 -6.68804472 46.82538519 -6.67871094 43.45605469 C-6.66731633 39.13139412 -6.67387564 34.80698178 -6.68585587 30.48233032 C-6.69307363 27.16412476 -6.69078694 23.84597831 -6.68560028 20.527771 C-6.68426355 18.93292207 -6.68591233 17.33806782 -6.69055939 15.7432251 C-6.69562331 13.51649708 -6.68791663 11.2901743 -6.67675781 9.06347656 C-6.67516663 7.79487793 -6.67357544 6.5262793 -6.67193604 5.21923828 C-6.25897685 0.4054502 -4.36399702 0.0086077 0 0 Z M-1.41796875 11.25878906 C-1.41796875 28.74878906 -1.41796875 46.23878906 -1.41796875 64.25878906 C11.78203125 64.25878906 24.98203125 64.25878906 38.58203125 64.25878906 C38.58203125 46.76878906 38.58203125 29.27878906 38.58203125 11.25878906 C25.38203125 11.25878906 12.18203125 11.25878906 -1.41796875 11.25878906 Z " fill="#462053" transform="translate(102.41796875,73.7412109375)"/>
<path d="M0 0 C3.031875 -0.061875 6.06375 -0.12375 9.1875 -0.1875 C10.60712036 -0.22846802 10.60712036 -0.22846802 12.05541992 -0.27026367 C16.87167553 -0.31780765 20.10798283 -0.16460741 24 3 C29.17469192 8.89339913 29.35693867 12.68207831 29.26953125 20.4375 C28.85198679 25.95634847 27.59071424 29.55592997 23.55078125 33.3671875 C16.4153392 38.01725086 8.37895049 36 0 36 C0 24.12 0 12.24 0 0 Z " fill="#4C295D" transform="translate(192,68)"/>
<path d="M0 0 C1.91195412 0.01697937 1.91195412 0.01697937 3.86253357 0.03430176 C7.22299165 0.07131016 10.57895345 0.14291848 13.93817139 0.23193359 C17.37700913 0.31434249 20.81631507 0.35042892 24.25585938 0.390625 C30.98315438 0.47853274 37.70776076 0.61645552 44.43359375 0.78125 C44.43359375 5.40125 44.43359375 10.02125 44.43359375 14.78125 C35.84553264 14.80380359 27.25749439 14.82216657 18.66941166 14.83306217 C14.68202175 14.83829036 10.69465308 14.84538684 6.70727539 14.85668945 C2.86234261 14.86752061 -0.9825697 14.87352732 -4.82751656 14.87612724 C-6.29759608 14.87798108 -7.76767443 14.88160091 -9.23774529 14.88698006 C-11.28995092 14.89419355 -13.34207092 14.89524081 -15.39428711 14.89477539 C-16.56454941 14.896996 -17.73481171 14.89921661 -18.9405365 14.90150452 C-21.56640625 14.78125 -21.56640625 14.78125 -22.56640625 13.78125 C-22.96223645 10.65548972 -22.85700658 9.21191168 -21.07460022 6.57043457 C-14.35900624 0.18882491 -9.03476524 -0.30521975 0 0 Z " fill="#F1F2F5" transform="translate(51.56640625,112.21875)"/>
<path d="M0 0 C19.60773481 0 19.60773481 0 26.90625 5.4140625 C29.38121097 9.00275591 28.65720171 13.88193789 28 18 C25.5659688 21.22344672 23.33795435 22.7746971 20 25 C15.98500069 25.26874159 12.02862593 25.08663712 8 25 C8 28.96 8 32.92 8 37 C5.36 37 2.72 37 0 37 C0 24.79 0 12.58 0 0 Z " fill="#4F2B5F" transform="translate(227,67)"/>
<path d="M0 0 C15.88888889 0 15.88888889 0 20 4 C23.46509742 7.58199228 23.40400833 10.55926557 23.375 15.4375 C23.38273437 16.73558594 23.39046875 18.03367187 23.3984375 19.37109375 C22.97463332 23.23103574 22.47625931 25.03789235 20 28 C14 31 14 31 0 31 C0 20.77 0 10.54 0 0 Z " fill="#3C507E" transform="translate(302,73)"/>
<path d="M0 0 C3.50878096 1.69173367 5.39030039 2.77850559 7.13671875 6.27734375 C9.0010027 12.1570085 9.00825072 19.27496128 6.75 25.0625 C4.97501672 28.04193622 3.91739558 29.23219112 1 31 C-2.746352 31.72023757 -6.24981722 31.70003412 -10 31 C-13.30131842 28.71281208 -14.73821262 25.78536213 -16 22 C-17.33262875 7.62785196 -17.33262875 7.62785196 -13.625 2.5625 C-9.6249872 -1.11523689 -5.11680956 -1.04662014 0 0 Z " fill="#3B4D7A" transform="translate(444,73)"/>
<path d="M0 0 C8.25 0 16.5 0 25 0 C25 1.98 25 3.96 25 6 C19.06 6 13.12 6 7 6 C7 8.97 7 11.94 7 15 C11.95 15 16.9 15 22 15 C22 16.98 22 18.96 22 21 C17.05 21 12.1 21 7 21 C7 23.97 7 26.94 7 30 C12.94 30 18.88 30 25 30 C25 31.98 25 33.96 25 36 C16.75 36 8.5 36 0 36 C0 24.12 0 12.24 0 0 Z " fill="#4A255A" transform="translate(261,68)"/>
<path d="M0 0 C2.875 1.75 2.875 1.75 5 5 C5.93839749 11.4094319 5.90347977 16.64228268 2 22 C-0.98594424 23.49297212 -3.70853624 23.11755228 -7 23 C-7.66 22.67 -8.32 22.34 -9 22 C-9 25.3 -9 28.6 -9 32 C-10.65 32 -12.3 32 -14 32 C-14 21.77 -14 11.54 -14 1 C-12.68 1 -11.36 1 -10 1 C-10 1.66 -10 2.32 -10 3 C-9.34 3 -8.68 3 -8 3 C-8 2.34 -8 1.68 -8 1 C-5.11138291 -0.44430855 -3.20352299 -0.37688506 0 0 Z " fill="#485A84" transform="translate(471,81)"/>
<path d="M0 0 C5.87215909 5.72159091 5.87215909 5.72159091 6.3125 10.125 C5.61992358 18.7129476 1.12914977 23.49013309 -5.28515625 28.953125 C-12.01198121 34.02486065 -18.76130013 36.53829519 -27 38 C-27 39.65 -27 41.3 -27 43 C-31.95 41.515 -31.95 41.515 -37 40 C-37 36 -37 36 -35.7578125 34.296875 C-35.21898438 33.78640625 -34.68015625 33.2759375 -34.125 32.75 C-33.59132813 32.22921875 -33.05765625 31.7084375 -32.5078125 31.171875 C-31 30 -31 30 -29 30 C-29 30.99 -29 31.98 -29 33 C-16.02795594 28.76843456 -16.02795594 28.76843456 -5 21 C-4.41605469 20.45472656 -3.83210938 19.90945312 -3.23046875 19.34765625 C0.90924784 15.07221125 2 11.9524803 2 6 C1.18156968 2.6184661 1.18156968 2.6184661 0 0 Z " fill="#EEEFF3" transform="translate(161,113)"/>
<path d="M0 0 C2.19140625 1.02734375 2.19140625 1.02734375 4 3 C4.40837031 5.8075459 4.56011224 8.13977621 4.5 10.9375 C4.51546875 11.65357422 4.5309375 12.36964844 4.546875 13.10742188 C4.52106534 16.58849984 4.26445762 18.63787013 2.19140625 21.4765625 C-0.98248271 23.68300937 -3.2310275 23.47968741 -7 23 C-8.68994141 21.71679688 -8.68994141 21.71679688 -10 20 C-10.2981028 17.07742357 -10.41882117 14.41654217 -10.375 11.5 C-10.38660156 10.72785156 -10.39820313 9.95570312 -10.41015625 9.16015625 C-10.38072772 3.50006876 -10.38072772 3.50006876 -8.68994141 1.27929688 C-5.87854169 -0.84895139 -3.39273876 -0.3571304 0 0 Z " fill="#F6F7F9" transform="translate(443,77)"/>
<path d="M0 0 C3.375 2 3.375 2 6 5 C6.50687865 7.85647239 6.29795219 10.07013677 6 13 C1.38 13 -3.24 13 -8 13 C-7.01 14.98 -6.02 16.96 -5 19 C-2.03 18.67 0.94 18.34 4 18 C4 19.32 4 20.64 4 22 C1.54617866 23.22691067 -0.19984103 23.20175931 -2.9375 23.25 C-3.81277344 23.27578125 -4.68804687 23.3015625 -5.58984375 23.328125 C-8 23 -8 23 -9.69140625 21.734375 C-12.78179884 17.63845169 -13.48652487 14.32582455 -13.39453125 9.2578125 C-12.72202988 5.40924032 -10.79323112 3.66022012 -8 1 C-5.09704195 -0.45147903 -3.22738221 -0.37239025 0 0 Z " fill="#425481" transform="translate(342,81)"/>
<path d="M0 0 C8.22222222 0 8.22222222 0 12 3 C13.6323191 7.89695729 13.51721485 12.88991733 13 18 C11.19196596 21.07365786 10.13960536 22.43019732 7 24 C4.69 24 2.38 24 0 24 C0 16.08 0 8.16 0 0 Z " fill="#F9F8FA" transform="translate(200,74)"/>
<path d="M0 0 C8 0 8 0 10.9609375 1.56640625 C14.37933793 5.64622133 13.6785619 9.58294774 13.4765625 14.69140625 C13 18 13 18 11 21.375 C8 23 8 23 0 23 C0 15.41 0 7.82 0 0 Z " fill="#F9F9FB" transform="translate(307,77)"/>
<path d="M0 0 C0.66 0.33 1.32 0.66 2 1 C1.67 1.99 1.34 2.98 1 4 C-1.97 4 -4.94 4 -8 4 C-8 5.32 -8 6.64 -8 8 C-6.741875 8.268125 -5.48375 8.53625 -4.1875 8.8125 C-1.76143475 9.43082459 -0.10443105 9.93146712 2 11.3125 C3.46910445 13.79161375 3.55202464 15.1708737 3 18 C0.77396715 20.74544051 -0.92569723 21.86143547 -4.453125 22.31640625 C-11.30015924 22.46656051 -11.30015924 22.46656051 -15 20 C-14.505 18.515 -14.505 18.515 -14 17 C-10.04 17.33 -6.08 17.66 -2 18 C-2.33 16.68 -2.66 15.36 -3 14 C-5.01322646 12.89690441 -5.01322646 12.89690441 -7.4375 12.3125 C-11.99245283 11.00377358 -11.99245283 11.00377358 -14 10 C-14.59878587 3.77262693 -14.59878587 3.77262693 -12.0625 0.5 C-7.8322199 -1.57197393 -4.50829563 -1.03628799 0 0 Z " fill="#435480" transform="translate(495,82)"/>
<path d="M0 0 C0.99 0.33 1.98 0.66 3 1 C2.34 3.31 1.68 5.62 1 8 C4.63 8 8.26 8 12 8 C12.33 6.35 12.66 4.7 13 3 C13.66 3 14.32 3 15 3 C15.33 5.64 15.66 8.28 16 11 C11.05 11 6.1 11 1 11 C1.66 12.65 2.32 14.3 3 16 C6.3 16 9.6 16 13 16 C13 17.32 13 18.64 13 20 C9.30201992 21.23266003 5.84478297 21.58136839 2 21 C-0.43119623 19.12984906 -1.64069173 17.71861655 -3 15 C-3.14754174 13.21247508 -3.2211522 11.4183716 -3.25 9.625 C-3.27578125 8.66851562 -3.3015625 7.71203125 -3.328125 6.7265625 C-2.95439914 3.62107853 -2.06626291 2.29463934 0 0 Z " fill="#3B4D79" transform="translate(408,83)"/>
<path d="M0 0 C1.65 0 3.3 0 5 0 C6.65 4.29 8.3 8.58 10 13 C10.45375 11.5975 10.9075 10.195 11.375 8.75 C12.36783204 5.68124642 13.49439503 2.85410334 15 0 C16.32 0 17.64 0 19 0 C17.26751883 7.63866698 15.13135691 14.81536384 12 22 C10.35 22 8.7 22 7 22 C5.82828244 18.71010914 4.66348912 15.41780898 3.5 12.125 C3.16613281 11.18785156 2.83226562 10.25070313 2.48828125 9.28515625 C2.17246094 8.38925781 1.85664063 7.49335937 1.53125 6.5703125 C1.23798828 5.74289551 0.94472656 4.91547852 0.64257812 4.06298828 C0 2 0 2 0 0 Z " fill="#3B4E7C" transform="translate(351,82)"/>
<path d="M0 0 C2.375 1.5 2.375 1.5 4 3 C3.67 3.99 3.34 4.98 3 6 C1.741875 5.773125 0.48375 5.54625 -0.8125 5.3125 C-4.00878394 4.91397188 -4.00878394 4.91397188 -7 5.9375 C-8.65747208 9.35603617 -8.29956174 12.22552213 -8 16 C-6.12355493 18.31686366 -6.12355493 18.31686366 -3.0625 18.1875 C0.04093079 18.12950232 0.04093079 18.12950232 3 17 C3.33 18.32 3.66 19.64 4 21 C0.27665219 23.48223187 -3.67356629 23.73735934 -8 23 C-10.96858157 20.79259319 -11.82865791 19.51402627 -13 16 C-13.61963036 10.77740127 -13.9313284 7.20092346 -10.625 2.9375 C-6.79823547 0.11298332 -4.77243767 -0.38179501 0 0 Z " fill="#374A79" transform="translate(397,81)"/>
<path d="M0 0 C0.66 0 1.32 0 2 0 C2 0.66 2 1.32 2 2 C6.62 1.67 11.24 1.34 16 1 C16 2.32 16 3.64 16 5 C11.38 5 6.76 5 2 5 C2.99 6.98 3.98 8.96 5 11 C9.455 10.505 9.455 10.505 14 10 C14 11.32 14 12.64 14 14 C11.54617866 15.22691067 9.80015897 15.20175931 7.0625 15.25 C6.18722656 15.27578125 5.31195313 15.3015625 4.41015625 15.328125 C2 15 2 15 0.24609375 13.671875 C-2.46600215 10.03307548 -2.23822023 6.36737087 -2 2 C-1.34 1.34 -0.68 0.68 0 0 Z " fill="#384C7A" transform="translate(332,89)"/>
<path d="M0 0 C2.5625 0.3125 2.5625 0.3125 4.203125 1.55078125 C5.92496499 3.7822463 5.93546735 5.02169936 5.875 7.8125 C5.87113281 8.5859375 5.86726563 9.359375 5.86328125 10.15625 C5.5625 12.3125 5.5625 12.3125 3.5625 15.3125 C0.5625 15.625 0.5625 15.625 -2.4375 15.3125 C-4.4375 13.3125 -4.4375 13.3125 -4.703125 10.78125 C-4.69796875 9.8015625 -4.6928125 8.821875 -4.6875 7.8125 C-4.69265625 6.8328125 -4.6978125 5.853125 -4.703125 4.84375 C-4.33958295 1.37940808 -3.46289616 0.44396105 0 0 Z " fill="#EFF1F4" transform="translate(466.4375,84.6875)"/>
<path d="M0 0 C0.66 0.66 1.32 1.32 2 2 C1.67 2.66 1.34 3.32 1 4 C-1.26146696 4.315344 -3.49236549 4.37920528 -5.7734375 4.4609375 C-8.10149326 4.83659351 -8.10149326 4.83659351 -9.7578125 6.59375 C-11.91944738 10.78106788 -11.4782706 15.2540133 -11.59375 19.8828125 C-11.7278125 20.91148438 -11.861875 21.94015625 -12 23 C-12.99 23.66 -13.98 24.32 -15 25 C-17.04882325 18.85353024 -17.38939083 10.57507284 -15.01171875 4.45703125 C-11.18082833 -0.77672046 -6.12909304 -1.245661 0 0 Z " fill="#374877" transform="translate(444,73)"/>
<path d="M0 0 C1.60875 -0.04125 3.2175 -0.0825 4.875 -0.125 C5.77992188 -0.14820312 6.68484375 -0.17140625 7.6171875 -0.1953125 C10 0 10 0 12 2 C12.25 5.5 12.25 5.5 12 9 C10 11 10 11 7.6171875 11.1953125 C6.71226562 11.17210938 5.80734375 11.14890625 4.875 11.125 C2.461875 11.063125 2.461875 11.063125 0 11 C0 7.37 0 3.74 0 0 Z " fill="#F2EFF3" transform="translate(235,74)"/>
<path d="M0 0 C1.65 0 3.3 0 5 0 C5 7.26 5 14.52 5 22 C3.35 22 1.7 22 0 22 C0 14.74 0 7.48 0 0 Z " fill="#4E5E86" transform="translate(374,82)"/>
<path d="M0 0 C0.99 0 1.98 0 3 0 C3 0.99 3 1.98 3 3 C3.66 3 4.32 3 5 3 C5 8.28 5 13.56 5 19 C4.34 19 3.68 19 3 19 C3 22.63 3 26.26 3 30 C2.01 30 1.02 30 0 30 C0 20.1 0 10.2 0 0 Z " fill="#2F426F" transform="translate(458,82)"/>
<path d="M0 0 C0 0.66 0 1.32 0 2 C1.32 2.66 2.64 3.32 4 4 C3.34 5.98 2.68 7.96 2 10 C-1.63 10 -5.26 10 -9 10 C-8.814375 8.88625 -8.62875 7.7725 -8.4375 6.625 C-7.68319343 3.17431139 -7.68319343 3.17431139 -9 1 C-6.04335481 -0.4783226 -3.25770263 -0.06032783 0 0 Z " fill="#485A85" transform="translate(418,81)"/>
<path d="M0 0 C6.27 0 12.54 0 19 0 C19.66 1.32 20.32 2.64 21 4 C13.74 4 6.48 4 -1 4 C-0.67 2.68 -0.34 1.36 0 0 Z " fill="#344A7A" transform="translate(69,118)"/>
<path d="M0 0 C0.33 0 0.66 0 1 0 C1.04898437 1.05960937 1.09796875 2.11921875 1.1484375 3.2109375 C1.22346709 4.59898497 1.29901485 5.98700451 1.375 7.375 C1.42140625 8.42300781 1.42140625 8.42300781 1.46875 9.4921875 C1.59499498 13.70185827 1.59499498 13.70185827 4 17 C6.21072977 17.24253813 6.21072977 17.24253813 8.625 17.125 C9.44226563 17.10695313 10.25953125 17.08890625 11.1015625 17.0703125 C12.04128906 17.03550781 12.04128906 17.03550781 13 17 C12.67 17.99 12.34 18.98 12 20 C12.66 20.33 13.32 20.66 14 21 C12.27415266 22.72584734 10.03790633 22.2533507 7.6875 22.3125 C2.41566152 22.26451187 2.41566152 22.26451187 -0.75 20.25 C-2.32262379 17.41927718 -1.8068368 17.04234002 -1 14 C-0.77882441 11.5861824 -0.59427758 9.16885403 -0.4375 6.75 C-0.35371094 5.48671875 -0.26992188 4.2234375 -0.18359375 2.921875 C-0.12300781 1.95765625 -0.06242187 0.9934375 0 0 Z " fill="#475A86" transform="translate(432,82)"/>
<path d="M0 0 C8.58 0 17.16 0 26 0 C26 0.33 26 0.66 26 1 C17.75 1 9.5 1 1 1 C1 4.3 1 7.6 1 11 C2.65 11.33 4.3 11.66 6 12 C6 13.65 6 15.3 6 17 C4.02 17 2.04 17 0 17 C0 11.39 0 5.78 0 0 Z " fill="#4E4678" transform="translate(146,108)"/>
<path d="M0 0 C1.65 0 3.3 0 5 0 C5.67057887 1.7902061 6.3363469 3.58221489 7 5.375 C7.556875 6.87160156 7.556875 6.87160156 8.125 8.3984375 C9 11 9 11 9 13 C7 14.625 7 14.625 5 16 C4.16280617 13.70967689 3.3301071 11.41789043 2.5 9.125 C2.14228516 8.14853516 2.14228516 8.14853516 1.77734375 7.15234375 C0 2.2265625 0 2.2265625 0 0 Z " fill="#41527D" transform="translate(351,82)"/>
<path d="M0 0 C3.0625 0.1875 3.0625 0.1875 5.0625 2.1875 C5.0625 3.5075 5.0625 4.8275 5.0625 6.1875 C1.7625 6.1875 -1.5375 6.1875 -4.9375 6.1875 C-3.87127483 0.24710265 -3.87127483 0.24710265 0 0 Z " fill="#E8EAEF" transform="translate(338.9375,84.8125)"/>
<path d="M0 0 C3.125 0.375 3.125 0.375 6 1 C6.33 2.65 6.66 4.3 7 6 C3.7 6 0.4 6 -3 6 C-2 2 -2 2 0 0 Z " fill="#F2F4F6" transform="translate(412,85)"/>
<path d="M0 0 C0.66 0 1.32 0 2 0 C0.25 3.875 0.25 3.875 -2 5 C-3.70702735 5.06996014 -5.41668003 5.08440154 -7.125 5.0625 C-8.03507812 5.05347656 -8.94515625 5.04445313 -9.8828125 5.03515625 C-10.58148438 5.02355469 -11.28015625 5.01195313 -12 5 C-12 4.01 -12 3.02 -12 2 C-11.21753906 1.93941406 -10.43507813 1.87882812 -9.62890625 1.81640625 C-8.61699219 1.73261719 -7.60507812 1.64882812 -6.5625 1.5625 C-5.55316406 1.48128906 -4.54382813 1.40007812 -3.50390625 1.31640625 C-1.06359221 1.26788532 -1.06359221 1.26788532 0 0 Z " fill="#334675" transform="translate(495,99)"/>
<path d="M0 0 C5.41538462 -0.36923077 5.41538462 -0.36923077 8.375 1.5 C8.91125 1.995 9.4475 2.49 10 3 C9.67 3.99 9.34 4.98 9 6 C6.03 5.67 3.06 5.34 0 5 C0 3.35 0 1.7 0 0 Z " fill="#3C4F7F" transform="translate(391,81)"/>
<path d="M0 0 C1.65 0.33 3.3 0.66 5 1 C4.67 2.65 4.34 4.3 4 6 C2.35 5.67 0.7 5.34 -1 5 C-0.67 3.35 -0.34 1.7 0 0 Z " fill="#E2DCE4" transform="translate(119,141)"/>
<path d="M0 0 C0.66 0.33 1.32 0.66 2 1 C1.67 1.61875 1.34 2.2375 1 2.875 C-0.14193235 4.91018344 -0.14193235 4.91018344 0 7 C-0.99 7.66 -1.98 8.32 -3 9 C-3.73343428 12.06556598 -3.73343428 12.06556598 -4 15 C-4.33 15 -4.66 15 -5 15 C-5.76681614 7.33183857 -5.76681614 7.33183857 -3.88671875 4.06640625 C-2.5 2.4375 -2.5 2.4375 0 0 Z " fill="#57658B" transform="translate(334,82)"/>
<path d="M0 0 C0.99 0.33 1.98 0.66 3 1 C3.33 2.65 3.66 4.3 4 6 C2.68 6.99 1.36 7.98 0 9 C-1.125 2.25 -1.125 2.25 0 0 Z " fill="#4C5D86" transform="translate(356,89)"/>
<path d="M0 0 C-0.33 0.99 -0.66 1.98 -1 3 C-2.65 3.33 -4.3 3.66 -6 4 C-6.33 3.34 -6.66 2.68 -7 2 C-7.99 1.34 -8.98 0.68 -10 0 C-3.375 -1.125 -3.375 -1.125 0 0 Z " fill="#495C88" transform="translate(422,100)"/>
<path d="M0 0 C0.33 1.32 0.66 2.64 1 4 C-0.98 4.66 -2.96 5.32 -5 6 C-5 5.34 -5 4.68 -5 4 C-5.99 3.34 -6.98 2.68 -8 2 C-2.25 0 -2.25 0 0 0 Z " fill="#495E8A" transform="translate(400,98)"/>
<path d="M0 0 C1.134375 0.020625 2.26875 0.04125 3.4375 0.0625 C3.7675 1.3825 4.0975 2.7025 4.4375 4.0625 C0.70262223 3.5645163 -1.37487635 3.18758244 -4.5625 1.0625 C-3.5625 0.0625 -3.5625 0.0625 0 0 Z " fill="#2A3E72" transform="translate(314.5625,73.9375)"/>
<path d="M0 0 C1.65 0 3.3 0 5 0 C5 1.65 5 3.3 5 5 C3.35 5 1.7 5 0 5 C0 3.35 0 1.7 0 0 Z " fill="#FBFCFC" transform="translate(147,120)"/>
<path d="M0 0 C1.4606285 2.64738916 2 3.89448334 2 7 C-2.29 7 -6.58 7 -11 7 C-11 6.67 -11 6.34 -11 6 C-6.545 5.505 -6.545 5.505 -2 5 C-1.34 3.35 -0.68 1.7 0 0 Z " fill="#293C6C" transform="translate(421,86)"/>
<path d="M0 0 C0.99 0 1.98 0 3 0 C3 0.99 3 1.98 3 3 C-1.29 3 -5.58 3 -10 3 C-10 2.67 -10 2.34 -10 2 C-9.04287109 1.90912109 -9.04287109 1.90912109 -8.06640625 1.81640625 C-6.82697266 1.69072266 -6.82697266 1.69072266 -5.5625 1.5625 C-4.73878906 1.48128906 -3.91507812 1.40007812 -3.06640625 1.31640625 C-1.01337975 1.21069185 -1.01337975 1.21069185 0 0 Z " fill="#2A3D6E" transform="translate(345,90)"/>
<path d="M0 0 C1.65 0 3.3 0 5 0 C5 1.32 5 2.64 5 4 C3.35 4 1.7 4 0 4 C0 2.68 0 1.36 0 0 Z " fill="#425482" transform="translate(374,73)"/>
<path d="M0 0 C3.63 0.33 7.26 0.66 11 1 C11 1.33 11 1.66 11 2 C8.03 2 5.06 2 2 2 C1.67 2.66 1.34 3.32 1 4 C0.34 3.67 -0.32 3.34 -1 3 C-0.67 2.01 -0.34 1.02 0 0 Z " fill="#627297" transform="translate(481,99)"/>
<path d="M0 0 C1.2065625 0.0309375 1.2065625 0.0309375 2.4375 0.0625 C2.4375 0.7225 2.4375 1.3825 2.4375 2.0625 C-0.21478812 3.13775194 -2.84618454 4.15706151 -5.5625 5.0625 C-3.15007962 0.07683121 -3.15007962 0.07683121 0 0 Z " fill="#26396D" transform="translate(338.5625,81.9375)"/>
<path d="M0 0 C2.97 0.495 2.97 0.495 6 1 C5.67 1.99 5.34 2.98 5 4 C3.35 3.67 1.7 3.34 0 3 C0 2.01 0 1.02 0 0 Z " fill="#273E71" transform="translate(390,100)"/>
<path d="M0 0 C1.32 0 2.64 0 4 0 C3.67 1.65 3.34 3.3 3 5 C2.01 5 1.02 5 0 5 C0 3.35 0 1.7 0 0 Z " fill="#2B3F6E" transform="translate(366,82)"/>
</svg>
