<?xml version="1.0" encoding="UTF-8"?>
<svg xmlns="http://www.w3.org/2000/svg" xmlns:xlink="http://www.w3.org/1999/xlink" width="154px" height="53px" viewBox="0 0 154 53" version="1.1">
<g id="surface1">
<path style=" stroke:none;fill-rule:nonzero;fill:rgb(99.215686%,99.215686%,99.607843%);fill-opacity:1;" d="M 0 0 C 50.820312 0 101.640625 0 154 0 C 154 17.488281 154 34.980469 154 53 C 103.179688 53 52.359375 53 0 53 C 0 35.511719 0 18.019531 0 0 Z M 0 0 "/>
<path style=" stroke:none;fill-rule:nonzero;fill:rgb(16.862746%,24.705882%,43.529412%);fill-opacity:1;" d="M 15.515625 2.363281 C 15.785156 2.363281 16.054688 2.359375 16.328125 2.359375 C 16.621094 2.359375 16.910156 2.355469 17.210938 2.355469 C 17.671875 2.351562 17.671875 2.351562 18.144531 2.351562 C 19.164062 2.34375 20.1875 2.339844 21.207031 2.335938 C 21.558594 2.335938 21.90625 2.335938 22.265625 2.332031 C 24.117188 2.328125 25.96875 2.324219 27.820312 2.320312 C 29.726562 2.316406 31.632812 2.304688 33.539062 2.292969 C 35.007812 2.285156 36.476562 2.285156 37.949219 2.28125 C 38.652344 2.28125 39.355469 2.277344 40.054688 2.273438 C 41.042969 2.265625 42.027344 2.265625 43.015625 2.265625 C 43.300781 2.265625 43.585938 2.261719 43.882812 2.257812 C 46.929688 2.277344 49.839844 3.242188 52.035156 5.421875 C 54.019531 7.882812 54.53125 10.023438 54.527344 13.136719 C 54.53125 13.453125 54.53125 13.773438 54.535156 14.101562 C 54.539062 15.152344 54.542969 16.203125 54.542969 17.253906 C 54.542969 17.988281 54.546875 18.71875 54.546875 19.453125 C 54.550781 20.988281 54.554688 22.523438 54.554688 24.0625 C 54.554688 26.023438 54.5625 27.988281 54.570312 29.953125 C 54.578125 31.464844 54.578125 32.980469 54.578125 34.492188 C 54.578125 35.21875 54.582031 35.941406 54.585938 36.664062 C 54.59375 37.679688 54.589844 38.695312 54.585938 39.707031 C 54.589844 40.003906 54.59375 40.300781 54.597656 40.605469 C 54.570312 43.539062 53.664062 46.035156 51.5625 48.121094 C 48.066406 51.289062 44.019531 50.839844 39.574219 50.800781 C 38.828125 50.796875 38.085938 50.796875 37.339844 50.796875 C 35.785156 50.796875 34.230469 50.789062 32.671875 50.777344 C 30.679688 50.761719 28.691406 50.757812 26.699219 50.757812 C 25.160156 50.757812 23.625 50.753906 22.089844 50.746094 C 21.355469 50.742188 20.621094 50.742188 19.886719 50.742188 C 18.859375 50.738281 17.835938 50.730469 16.808594 50.722656 C 16.355469 50.722656 16.355469 50.722656 15.894531 50.722656 C 13.171875 50.6875 11.109375 49.882812 9.085938 47.976562 C 6.800781 45.558594 6.132812 42.984375 6.152344 39.710938 C 6.148438 39.390625 6.144531 39.066406 6.140625 38.738281 C 6.132812 37.6875 6.132812 36.636719 6.136719 35.582031 C 6.132812 34.847656 6.128906 34.109375 6.128906 33.375 C 6.125 31.832031 6.125 30.292969 6.125 28.753906 C 6.128906 26.785156 6.121094 24.820312 6.105469 22.851562 C 6.097656 21.332031 6.097656 19.8125 6.097656 18.292969 C 6.097656 17.566406 6.09375 16.839844 6.089844 16.117188 C 6.03125 8.269531 6.03125 8.269531 8.734375 5.363281 C 10.691406 3.496094 12.785156 2.378906 15.515625 2.363281 Z M 15.515625 2.363281 "/>
<path style=" stroke:none;fill-rule:nonzero;fill:rgb(49.803922%,20.784314%,49.803922%);fill-opacity:1;" d="M 15.515625 2.363281 C 15.785156 2.363281 16.054688 2.359375 16.328125 2.359375 C 16.621094 2.359375 16.910156 2.355469 17.210938 2.355469 C 17.671875 2.351562 17.671875 2.351562 18.144531 2.351562 C 19.164062 2.34375 20.1875 2.339844 21.207031 2.335938 C 21.558594 2.335938 21.90625 2.335938 22.265625 2.332031 C 24.117188 2.328125 25.96875 2.324219 27.820312 2.320312 C 29.726562 2.316406 31.632812 2.304688 33.539062 2.292969 C 35.007812 2.285156 36.476562 2.285156 37.949219 2.28125 C 38.652344 2.28125 39.355469 2.277344 40.054688 2.273438 C 41.042969 2.265625 42.027344 2.265625 43.015625 2.265625 C 43.300781 2.265625 43.585938 2.261719 43.882812 2.257812 C 46.929688 2.277344 49.839844 3.242188 52.035156 5.421875 C 53.726562 7.519531 54.519531 9.410156 54.507812 12.132812 C 54.511719 12.34375 54.511719 12.554688 54.511719 12.773438 C 54.507812 13.46875 54.503906 14.164062 54.5 14.855469 C 54.5 15.339844 54.5 15.824219 54.496094 16.308594 C 54.496094 17.574219 54.488281 18.84375 54.484375 20.113281 C 54.476562 21.410156 54.472656 22.703125 54.472656 24 C 54.464844 26.539062 54.453125 29.078125 54.441406 31.621094 C 54.105469 31.761719 53.769531 31.90625 53.425781 32.050781 C 52.855469 32.296875 52.289062 32.546875 51.734375 32.824219 C 51.167969 32.847656 50.597656 32.855469 50.03125 32.851562 C 49.523438 32.851562 49.523438 32.851562 49.007812 32.851562 C 48.65625 32.847656 48.300781 32.84375 47.9375 32.84375 C 47.582031 32.839844 47.226562 32.839844 46.859375 32.839844 C 45.976562 32.835938 45.097656 32.828125 44.214844 32.824219 C 44.214844 33.816406 44.214844 34.8125 44.214844 35.835938 C 44.710938 35.933594 45.207031 36.035156 45.71875 36.136719 C 45.71875 36.632812 45.71875 37.128906 45.71875 37.640625 C 45.125 37.640625 44.527344 37.640625 43.914062 37.640625 C 43.914062 34.660156 43.914062 31.679688 43.914062 28.609375 C 46.792969 28.609375 49.671875 28.609375 52.636719 28.609375 C 52.539062 22.644531 52.4375 16.683594 52.335938 10.539062 C 51.652344 10.199219 51.289062 10.203125 50.53125 10.203125 C 50.28125 10.203125 50.027344 10.203125 49.769531 10.199219 C 49.492188 10.203125 49.21875 10.203125 48.933594 10.203125 C 48.496094 10.203125 48.496094 10.203125 48.050781 10.203125 C 47.089844 10.203125 46.125 10.207031 45.160156 10.210938 C 44.496094 10.210938 43.828125 10.210938 43.160156 10.210938 C 41.402344 10.210938 39.648438 10.214844 37.890625 10.21875 C 36.097656 10.222656 34.304688 10.222656 32.511719 10.222656 C 28.992188 10.226562 25.476562 10.230469 21.957031 10.238281 C 21.675781 11.078125 21.601562 11.671875 21.5625 12.546875 C 21.542969 12.949219 21.542969 12.949219 21.523438 13.363281 C 21.511719 13.640625 21.5 13.921875 21.488281 14.210938 C 21.46875 14.632812 21.46875 14.632812 21.449219 15.066406 C 21.414062 15.765625 21.386719 16.464844 21.355469 17.164062 C 21.082031 17.171875 20.8125 17.179688 20.53125 17.1875 C 19.527344 17.214844 18.523438 17.246094 17.515625 17.277344 C 17.082031 17.289062 16.644531 17.300781 16.210938 17.316406 C 15.585938 17.332031 14.960938 17.351562 14.335938 17.371094 C 13.769531 17.386719 13.769531 17.386719 13.195312 17.402344 C 12.363281 17.367188 12.363281 17.367188 12.03125 17.765625 C 11.984375 18.390625 11.957031 19.015625 11.9375 19.640625 C 11.921875 20.019531 11.910156 20.398438 11.898438 20.789062 C 11.886719 21.195312 11.875 21.597656 11.863281 22 C 11.847656 22.40625 11.835938 22.8125 11.824219 23.214844 C 11.789062 24.210938 11.761719 25.203125 11.730469 26.199219 C 10.382812 26.050781 9.347656 25.855469 8.175781 25.164062 C 7.953125 25.035156 7.726562 24.902344 7.496094 24.769531 C 6.917969 24.390625 6.917969 24.390625 6.316406 23.789062 C 6.230469 23.203125 6.230469 23.203125 6.21875 22.480469 C 6.214844 22.207031 6.207031 21.9375 6.203125 21.65625 C 6.199219 21.359375 6.195312 21.066406 6.195312 20.761719 C 6.191406 20.457031 6.1875 20.152344 6.183594 19.839844 C 6.179688 19.191406 6.175781 18.542969 6.171875 17.894531 C 6.167969 16.914062 6.148438 15.9375 6.128906 14.957031 C 6.089844 11.25 6.082031 8.21875 8.734375 5.363281 C 10.695312 3.496094 12.785156 2.378906 15.515625 2.363281 Z M 15.515625 2.363281 "/>
<path style=" stroke:none;fill-rule:nonzero;fill:rgb(98.431373%,98.039216%,98.431373%);fill-opacity:1;" d="M 25.359375 9.792969 C 25.785156 9.789062 25.785156 9.789062 26.21875 9.789062 C 27.152344 9.785156 28.089844 9.792969 29.027344 9.796875 C 29.675781 9.800781 30.328125 9.800781 30.976562 9.800781 C 32.339844 9.800781 33.703125 9.804688 35.066406 9.8125 C 36.8125 9.824219 38.5625 9.824219 40.308594 9.824219 C 41.652344 9.824219 42.996094 9.828125 44.339844 9.832031 C 44.984375 9.835938 45.628906 9.835938 46.273438 9.835938 C 47.171875 9.839844 48.074219 9.84375 48.972656 9.851562 C 49.242188 9.851562 49.507812 9.847656 49.785156 9.847656 C 50.152344 9.851562 50.152344 9.851562 50.527344 9.855469 C 50.738281 9.859375 50.953125 9.859375 51.171875 9.859375 C 51.734375 9.9375 51.734375 9.9375 52.636719 10.539062 C 52.746094 11.296875 52.746094 11.296875 52.738281 12.265625 C 52.738281 12.628906 52.738281 12.988281 52.738281 13.363281 C 52.734375 13.753906 52.730469 14.148438 52.726562 14.550781 C 52.722656 14.957031 52.722656 15.359375 52.722656 15.765625 C 52.71875 16.828125 52.707031 17.890625 52.699219 18.957031 C 52.6875 20.042969 52.683594 21.128906 52.679688 22.214844 C 52.671875 24.347656 52.652344 26.476562 52.636719 28.609375 C 49.757812 28.609375 46.878906 28.609375 43.914062 28.609375 C 43.78125 25.765625 43.78125 25.765625 43.742188 24.867188 C 43.730469 24.636719 43.71875 24.40625 43.707031 24.167969 C 43.699219 23.929688 43.6875 23.691406 43.675781 23.445312 C 43.671875 22.882812 43.671875 22.882812 43.3125 22.585938 C 42.734375 22.539062 42.152344 22.507812 41.574219 22.488281 C 41.21875 22.476562 40.867188 22.464844 40.507812 22.453125 C 40.136719 22.441406 39.765625 22.429688 39.382812 22.414062 C 39.011719 22.402344 38.640625 22.390625 38.257812 22.375 C 37.335938 22.34375 36.414062 22.3125 35.492188 22.285156 C 35.476562 21.960938 35.460938 21.640625 35.449219 21.304688 C 35.425781 20.886719 35.402344 20.464844 35.378906 20.042969 C 35.371094 19.832031 35.359375 19.617188 35.351562 19.398438 C 35.320312 18.851562 35.257812 18.308594 35.191406 17.765625 C 34.496094 17.417969 34.078125 17.417969 33.308594 17.402344 C 33.042969 17.398438 32.777344 17.390625 32.503906 17.386719 C 32.21875 17.378906 31.929688 17.375 31.636719 17.371094 C 31.34375 17.363281 31.050781 17.359375 30.75 17.351562 C 29.8125 17.332031 28.871094 17.3125 27.933594 17.296875 C 27.300781 17.285156 26.664062 17.269531 26.03125 17.257812 C 24.472656 17.226562 22.914062 17.195312 21.355469 17.164062 C 21.320312 16.1875 21.300781 15.207031 21.28125 14.230469 C 21.269531 13.953125 21.261719 13.675781 21.25 13.390625 C 21.246094 13.121094 21.242188 12.851562 21.238281 12.578125 C 21.230469 12.332031 21.226562 12.085938 21.21875 11.832031 C 21.660156 9.601562 23.511719 9.769531 25.359375 9.792969 Z M 25.359375 9.792969 "/>
<path style=" stroke:none;fill-rule:nonzero;fill:rgb(99.607843%,99.607843%,99.607843%);fill-opacity:1;" d="M 13.535156 18.972656 C 20.285156 18.972656 27.035156 18.972656 33.988281 18.972656 C 33.988281 20.066406 33.988281 21.15625 33.988281 22.285156 C 33.667969 22.300781 33.351562 22.3125 33.023438 22.328125 C 32.605469 22.351562 32.1875 22.375 31.769531 22.398438 C 31.453125 22.410156 31.453125 22.410156 31.132812 22.425781 C 29.867188 22.464844 29.867188 22.464844 28.875 23.1875 C 28.761719 24.125 28.761719 24.125 28.75 25.222656 C 28.738281 25.585938 28.730469 25.953125 28.71875 26.328125 C 28.707031 26.796875 28.699219 27.261719 28.6875 27.742188 C 28.648438 29.21875 28.613281 30.699219 28.574219 32.222656 C 23.609375 32.222656 18.648438 32.222656 13.535156 32.222656 C 13.535156 27.847656 13.535156 23.476562 13.535156 18.972656 Z M 13.535156 18.972656 "/>
<path style=" stroke:none;fill-rule:nonzero;fill:rgb(98.039216%,97.647059%,98.039216%);fill-opacity:1;" d="M 30.378906 25.597656 C 34.347656 25.597656 38.320312 25.597656 42.410156 25.597656 C 42.410156 30.863281 42.410156 36.128906 42.410156 41.558594 C 38.441406 41.558594 34.46875 41.558594 30.378906 41.558594 C 30.378906 36.289062 30.378906 31.023438 30.378906 25.597656 Z M 30.378906 25.597656 "/>
<path style=" stroke:none;fill-rule:nonzero;fill:rgb(27.450982%,12.54902%,32.549021%);fill-opacity:1;" d="M 30.804688 22.207031 C 31.21875 22.203125 31.21875 22.203125 31.640625 22.199219 C 31.9375 22.203125 32.234375 22.203125 32.539062 22.203125 C 32.84375 22.203125 33.152344 22.203125 33.464844 22.203125 C 34.109375 22.203125 34.753906 22.203125 35.398438 22.207031 C 36.390625 22.207031 37.378906 22.207031 38.371094 22.203125 C 38.996094 22.203125 39.621094 22.203125 40.25 22.203125 C 40.546875 22.203125 40.84375 22.203125 41.148438 22.199219 C 41.425781 22.203125 41.699219 22.203125 41.984375 22.207031 C 42.347656 22.207031 42.347656 22.207031 42.71875 22.207031 C 43.3125 22.285156 43.3125 22.285156 43.914062 22.886719 C 43.988281 23.714844 43.988281 23.714844 43.980469 24.777344 C 43.984375 24.972656 43.984375 25.167969 43.984375 25.367188 C 43.980469 26.007812 43.976562 26.652344 43.972656 27.292969 C 43.972656 27.738281 43.972656 28.183594 43.96875 28.628906 C 43.96875 29.796875 43.960938 30.96875 43.957031 32.140625 C 43.949219 33.335938 43.945312 34.53125 43.945312 35.726562 C 43.9375 38.070312 43.925781 40.417969 43.914062 42.761719 C 43.4375 42.964844 42.960938 43.164062 42.484375 43.363281 C 42.21875 43.476562 41.953125 43.585938 41.683594 43.703125 C 40.90625 43.964844 40.90625 43.964844 39.703125 43.964844 C 39.703125 43.667969 39.703125 43.371094 39.703125 43.0625 C 39.574219 43.210938 39.449219 43.363281 39.316406 43.519531 C 38.074219 44.808594 37.179688 45.320312 35.371094 45.398438 C 34.671875 45.390625 33.972656 45.371094 33.273438 45.339844 C 32.917969 45.335938 32.558594 45.332031 32.191406 45.328125 C 29.574219 45.269531 29.574219 45.269531 28.875 44.566406 C 28.796875 43.675781 28.796875 43.675781 28.796875 42.519531 C 28.796875 42.308594 28.796875 42.097656 28.792969 41.882812 C 28.792969 41.183594 28.792969 40.484375 28.796875 39.789062 C 28.792969 39.304688 28.792969 38.820312 28.792969 38.335938 C 28.792969 37.320312 28.792969 36.308594 28.796875 35.292969 C 28.800781 33.988281 28.796875 32.6875 28.792969 31.386719 C 28.792969 30.386719 28.792969 29.386719 28.792969 28.386719 C 28.792969 27.90625 28.792969 27.425781 28.792969 26.945312 C 28.792969 26.277344 28.792969 25.605469 28.796875 24.933594 C 28.796875 24.554688 28.796875 24.171875 28.796875 23.777344 C 28.921875 22.328125 29.492188 22.207031 30.804688 22.207031 Z M 30.378906 25.597656 C 30.378906 30.863281 30.378906 36.128906 30.378906 41.558594 C 34.347656 41.558594 38.320312 41.558594 42.410156 41.558594 C 42.410156 36.289062 42.410156 31.023438 42.410156 25.597656 C 38.441406 25.597656 34.46875 25.597656 30.378906 25.597656 Z M 30.378906 25.597656 "/>
<path style=" stroke:none;fill-rule:nonzero;fill:rgb(29.803923%,16.078432%,36.470589%);fill-opacity:1;" d="M 57.75 20.476562 C 58.660156 20.457031 59.574219 20.441406 60.511719 20.421875 C 60.941406 20.410156 60.941406 20.410156 61.375 20.394531 C 62.824219 20.382812 63.796875 20.425781 64.96875 21.378906 C 66.523438 23.15625 66.578125 24.296875 66.554688 26.632812 C 66.429688 28.292969 66.046875 29.378906 64.832031 30.523438 C 62.6875 31.925781 60.269531 31.316406 57.75 31.316406 C 57.75 27.742188 57.75 24.164062 57.75 20.476562 Z M 57.75 20.476562 "/>
<path style=" stroke:none;fill-rule:nonzero;fill:rgb(94.509804%,94.901961%,96.078432%);fill-opacity:1;" d="M 15.511719 33.792969 C 16.085938 33.796875 16.085938 33.796875 16.671875 33.804688 C 17.683594 33.816406 18.691406 33.835938 19.703125 33.863281 C 20.738281 33.886719 21.769531 33.898438 22.804688 33.910156 C 24.828125 33.9375 26.851562 33.980469 28.875 34.027344 C 28.875 35.417969 28.875 36.8125 28.875 38.246094 C 26.292969 38.25 23.707031 38.257812 21.125 38.261719 C 19.925781 38.261719 18.726562 38.261719 17.527344 38.265625 C 16.371094 38.269531 15.214844 38.273438 14.058594 38.273438 C 13.617188 38.273438 13.175781 38.273438 12.730469 38.277344 C 12.113281 38.277344 11.496094 38.277344 10.878906 38.277344 C 10.527344 38.277344 10.175781 38.28125 9.8125 38.28125 C 9.023438 38.246094 9.023438 38.246094 8.722656 37.941406 C 8.605469 37 8.636719 36.566406 9.171875 35.773438 C 11.191406 33.851562 12.792969 33.703125 15.511719 33.792969 Z M 15.511719 33.792969 "/>
<path style=" stroke:none;fill-rule:nonzero;fill:rgb(30.980393%,16.862746%,37.254903%);fill-opacity:1;" d="M 68.277344 20.175781 C 74.175781 20.175781 74.175781 20.175781 76.371094 21.804688 C 77.113281 22.886719 76.898438 24.355469 76.699219 25.597656 C 75.96875 26.566406 75.296875 27.035156 74.292969 27.703125 C 73.085938 27.785156 71.894531 27.730469 70.683594 27.703125 C 70.683594 28.898438 70.683594 30.089844 70.683594 31.316406 C 69.890625 31.316406 69.09375 31.316406 68.277344 31.316406 C 68.277344 27.640625 68.277344 23.964844 68.277344 20.175781 Z M 68.277344 20.175781 "/>
<path style=" stroke:none;fill-rule:nonzero;fill:rgb(23.529412%,31.37255%,49.411765%);fill-opacity:1;" d="M 90.835938 21.984375 C 95.613281 21.984375 95.613281 21.984375 96.851562 23.1875 C 97.894531 24.265625 97.875 25.164062 97.867188 26.632812 C 97.867188 27.023438 97.871094 27.414062 97.875 27.816406 C 97.746094 28.980469 97.597656 29.523438 96.851562 30.414062 C 95.046875 31.316406 95.046875 31.316406 90.835938 31.316406 C 90.835938 28.238281 90.835938 25.15625 90.835938 21.984375 Z M 90.835938 21.984375 "/>
<path style=" stroke:none;fill-rule:nonzero;fill:rgb(23.137255%,30.19608%,47.843137%);fill-opacity:1;" d="M 133.546875 21.984375 C 134.601562 22.492188 135.167969 22.820312 135.695312 23.875 C 136.253906 25.644531 136.257812 27.789062 135.578125 29.53125 C 135.042969 30.425781 134.726562 30.785156 133.847656 31.316406 C 132.722656 31.535156 131.667969 31.527344 130.539062 31.316406 C 129.546875 30.628906 129.113281 29.746094 128.734375 28.609375 C 128.332031 24.28125 128.332031 24.28125 129.449219 22.753906 C 130.652344 21.648438 132.007812 21.667969 133.546875 21.984375 Z M 133.546875 21.984375 "/>
<path style=" stroke:none;fill-rule:nonzero;fill:rgb(29.019609%,14.509805%,35.294119%);fill-opacity:1;" d="M 78.503906 20.476562 C 80.984375 20.476562 83.46875 20.476562 86.023438 20.476562 C 86.023438 21.074219 86.023438 21.667969 86.023438 22.285156 C 84.238281 22.285156 82.449219 22.285156 80.609375 22.285156 C 80.609375 23.179688 80.609375 24.074219 80.609375 24.996094 C 82.097656 24.996094 83.585938 24.996094 85.121094 24.996094 C 85.121094 25.589844 85.121094 26.1875 85.121094 26.800781 C 83.632812 26.800781 82.144531 26.800781 80.609375 26.800781 C 80.609375 27.695312 80.609375 28.589844 80.609375 29.511719 C 82.394531 29.511719 84.183594 29.511719 86.023438 29.511719 C 86.023438 30.109375 86.023438 30.703125 86.023438 31.316406 C 83.542969 31.316406 81.0625 31.316406 78.503906 31.316406 C 78.503906 27.742188 78.503906 24.164062 78.503906 20.476562 Z M 78.503906 20.476562 "/>
<path style=" stroke:none;fill-rule:nonzero;fill:rgb(28.235295%,35.294119%,51.764709%);fill-opacity:1;" d="M 141.667969 24.390625 C 142.53125 24.917969 142.53125 24.917969 143.171875 25.898438 C 143.453125 27.828125 143.445312 29.402344 142.269531 31.015625 C 141.371094 31.464844 140.550781 31.355469 139.5625 31.316406 C 139.363281 31.21875 139.164062 31.121094 138.960938 31.015625 C 138.960938 32.011719 138.960938 33.003906 138.960938 34.027344 C 138.464844 34.027344 137.96875 34.027344 137.457031 34.027344 C 137.457031 30.949219 137.457031 27.867188 137.457031 24.691406 C 137.855469 24.691406 138.25 24.691406 138.660156 24.691406 C 138.660156 24.890625 138.660156 25.089844 138.660156 25.296875 C 138.859375 25.296875 139.058594 25.296875 139.261719 25.296875 C 139.261719 25.097656 139.261719 24.898438 139.261719 24.691406 C 140.128906 24.257812 140.703125 24.277344 141.667969 24.390625 Z M 141.667969 24.390625 "/>
<path style=" stroke:none;fill-rule:nonzero;fill:rgb(93.333334%,93.725491%,95.294118%);fill-opacity:1;" d="M 48.425781 34.027344 C 50.191406 35.75 50.191406 35.75 50.324219 37.078125 C 50.117188 39.664062 48.765625 41.101562 46.835938 42.746094 C 44.8125 44.273438 42.78125 45.03125 40.304688 45.472656 C 40.304688 45.96875 40.304688 46.464844 40.304688 46.976562 C 38.816406 46.53125 38.816406 46.53125 37.296875 46.074219 C 37.296875 44.871094 37.296875 44.871094 37.671875 44.355469 C 37.832031 44.203125 37.996094 44.050781 38.160156 43.890625 C 38.320312 43.734375 38.484375 43.578125 38.648438 43.414062 C 39.101562 43.0625 39.101562 43.0625 39.703125 43.0625 C 39.703125 43.359375 39.703125 43.660156 39.703125 43.964844 C 43.605469 42.691406 43.605469 42.691406 46.921875 40.351562 C 47.097656 40.1875 47.273438 40.023438 47.453125 39.855469 C 48.699219 38.566406 49.027344 37.628906 49.027344 35.835938 C 48.78125 34.816406 48.78125 34.816406 48.425781 34.027344 Z M 48.425781 34.027344 "/>
<path style=" stroke:none;fill-rule:nonzero;fill:rgb(96.470588%,96.862745%,97.647059%);fill-opacity:1;" d="M 133.246094 23.1875 C 133.90625 23.496094 133.90625 23.496094 134.449219 24.089844 C 134.570312 24.9375 134.617188 25.640625 134.601562 26.480469 C 134.605469 26.695312 134.609375 26.914062 134.613281 27.132812 C 134.605469 28.183594 134.527344 28.800781 133.90625 29.65625 C 132.949219 30.320312 132.273438 30.257812 131.140625 30.113281 C 130.632812 29.726562 130.632812 29.726562 130.238281 29.210938 C 130.148438 28.332031 130.113281 27.527344 130.125 26.652344 C 130.121094 26.417969 130.117188 26.183594 130.113281 25.945312 C 130.125 24.242188 130.125 24.242188 130.632812 23.574219 C 131.476562 22.933594 132.226562 23.078125 133.246094 23.1875 Z M 133.246094 23.1875 "/>
<path style=" stroke:none;fill-rule:nonzero;fill:rgb(25.882354%,32.941177%,50.588238%);fill-opacity:1;" d="M 102.867188 24.390625 C 103.882812 24.996094 103.882812 24.996094 104.671875 25.898438 C 104.824219 26.757812 104.761719 27.425781 104.671875 28.308594 C 103.28125 28.308594 101.894531 28.308594 100.460938 28.308594 C 100.757812 28.902344 101.054688 29.5 101.363281 30.113281 C 102.257812 30.015625 103.148438 29.914062 104.070312 29.8125 C 104.070312 30.210938 104.070312 30.609375 104.070312 31.015625 C 103.332031 31.386719 102.808594 31.378906 101.984375 31.394531 C 101.71875 31.402344 101.457031 31.410156 101.1875 31.417969 C 100.460938 31.316406 100.460938 31.316406 99.953125 30.9375 C 99.023438 29.703125 98.8125 28.707031 98.839844 27.179688 C 99.039062 26.019531 99.621094 25.496094 100.460938 24.691406 C 101.335938 24.257812 101.894531 24.28125 102.867188 24.390625 Z M 102.867188 24.390625 "/>
<path style=" stroke:none;fill-rule:nonzero;fill:rgb(97.647059%,97.254902%,98.039216%);fill-opacity:1;" d="M 60.15625 22.285156 C 62.628906 22.285156 62.628906 22.285156 63.765625 23.1875 C 64.257812 24.664062 64.222656 26.164062 64.066406 27.703125 C 63.523438 28.628906 63.207031 29.039062 62.261719 29.511719 C 61.566406 29.511719 60.871094 29.511719 60.15625 29.511719 C 60.15625 27.125 60.15625 24.742188 60.15625 22.285156 Z M 60.15625 22.285156 "/>
<path style=" stroke:none;fill-rule:nonzero;fill:rgb(97.647059%,97.647059%,98.431373%);fill-opacity:1;" d="M 92.339844 23.1875 C 94.746094 23.1875 94.746094 23.1875 95.636719 23.660156 C 96.664062 24.886719 96.453125 26.074219 96.394531 27.613281 C 96.25 28.609375 96.25 28.609375 95.648438 29.625 C 94.746094 30.113281 94.746094 30.113281 92.339844 30.113281 C 92.339844 27.828125 92.339844 25.542969 92.339844 23.1875 Z M 92.339844 23.1875 "/>
<path style=" stroke:none;fill-rule:nonzero;fill:rgb(26.274511%,32.941177%,50.196081%);fill-opacity:1;" d="M 148.886719 24.691406 C 149.085938 24.792969 149.285156 24.890625 149.488281 24.996094 C 149.390625 25.292969 149.289062 25.589844 149.1875 25.898438 C 148.292969 25.898438 147.402344 25.898438 146.480469 25.898438 C 146.480469 26.296875 146.480469 26.691406 146.480469 27.101562 C 146.859375 27.183594 147.238281 27.265625 147.628906 27.347656 C 148.355469 27.53125 148.855469 27.683594 149.488281 28.101562 C 149.929688 28.847656 149.957031 29.261719 149.789062 30.113281 C 149.121094 30.941406 148.609375 31.277344 147.546875 31.414062 C 145.488281 31.457031 145.488281 31.457031 144.375 30.714844 C 144.523438 30.269531 144.523438 30.269531 144.675781 29.8125 C 145.867188 29.910156 147.058594 30.011719 148.285156 30.113281 C 148.1875 29.714844 148.085938 29.320312 147.984375 28.910156 C 147.378906 28.578125 147.378906 28.578125 146.648438 28.402344 C 145.28125 28.007812 145.28125 28.007812 144.675781 27.703125 C 144.496094 25.828125 144.496094 25.828125 145.257812 24.84375 C 146.53125 24.21875 147.53125 24.382812 148.886719 24.691406 Z M 148.886719 24.691406 "/>
<path style=" stroke:none;fill-rule:nonzero;fill:rgb(23.137255%,30.19608%,47.450981%);fill-opacity:1;" d="M 122.71875 24.996094 C 123.015625 25.09375 123.3125 25.191406 123.621094 25.296875 C 123.421875 25.992188 123.222656 26.6875 123.019531 27.402344 C 124.113281 27.402344 125.203125 27.402344 126.328125 27.402344 C 126.425781 26.90625 126.527344 26.410156 126.628906 25.898438 C 126.828125 25.898438 127.027344 25.898438 127.230469 25.898438 C 127.328125 26.691406 127.429688 27.488281 127.53125 28.308594 C 126.042969 28.308594 124.554688 28.308594 123.019531 28.308594 C 123.21875 28.804688 123.417969 29.300781 123.621094 29.8125 C 124.613281 29.8125 125.605469 29.8125 126.628906 29.8125 C 126.628906 30.210938 126.628906 30.609375 126.628906 31.015625 C 125.515625 31.386719 124.476562 31.492188 123.320312 31.316406 C 122.589844 30.753906 122.226562 30.328125 121.816406 29.511719 C 121.773438 28.972656 121.75 28.433594 121.742188 27.894531 C 121.734375 27.605469 121.726562 27.316406 121.71875 27.019531 C 121.832031 26.085938 122.097656 25.683594 122.71875 24.996094 Z M 122.71875 24.996094 "/>
<path style=" stroke:none;fill-rule:nonzero;fill:rgb(23.137255%,30.588236%,48.627451%);fill-opacity:1;" d="M 105.574219 24.691406 C 106.070312 24.691406 106.566406 24.691406 107.078125 24.691406 C 107.574219 25.984375 108.070312 27.277344 108.582031 28.609375 C 108.71875 28.1875 108.855469 27.761719 108.996094 27.328125 C 109.292969 26.402344 109.632812 25.550781 110.085938 24.691406 C 110.484375 24.691406 110.878906 24.691406 111.289062 24.691406 C 110.769531 26.992188 110.125 29.15625 109.183594 31.316406 C 108.6875 31.316406 108.191406 31.316406 107.679688 31.316406 C 107.328125 30.328125 106.976562 29.335938 106.625 28.34375 C 106.527344 28.0625 106.425781 27.78125 106.324219 27.488281 C 106.226562 27.21875 106.132812 26.949219 106.035156 26.671875 C 105.945312 26.421875 105.859375 26.171875 105.765625 25.917969 C 105.574219 25.296875 105.574219 25.296875 105.574219 24.691406 Z M 105.574219 24.691406 "/>
<path style=" stroke:none;fill-rule:nonzero;fill:rgb(21.568628%,29.019609%,47.450981%);fill-opacity:1;" d="M 119.410156 24.390625 C 120.125 24.84375 120.125 24.84375 120.613281 25.296875 C 120.515625 25.59375 120.414062 25.890625 120.3125 26.199219 C 119.933594 26.128906 119.554688 26.0625 119.164062 25.992188 C 118.203125 25.871094 118.203125 25.871094 117.304688 26.179688 C 116.804688 27.210938 116.914062 28.074219 117.003906 29.210938 C 117.566406 29.90625 117.566406 29.90625 118.488281 29.867188 C 119.421875 29.851562 119.421875 29.851562 120.3125 29.511719 C 120.410156 29.910156 120.511719 30.304688 120.613281 30.714844 C 119.492188 31.464844 118.304688 31.539062 117.003906 31.316406 C 116.109375 30.652344 115.851562 30.269531 115.5 29.210938 C 115.3125 27.636719 115.21875 26.558594 116.214844 25.277344 C 117.367188 24.425781 117.976562 24.277344 119.410156 24.390625 Z M 119.410156 24.390625 "/>
<path style=" stroke:none;fill-rule:nonzero;fill:rgb(21.960784%,29.803923%,47.843137%);fill-opacity:1;" d="M 99.859375 26.800781 C 100.058594 26.800781 100.257812 26.800781 100.460938 26.800781 C 100.460938 27 100.460938 27.199219 100.460938 27.402344 C 101.851562 27.304688 103.238281 27.203125 104.671875 27.101562 C 104.671875 27.5 104.671875 27.898438 104.671875 28.308594 C 103.28125 28.308594 101.894531 28.308594 100.460938 28.308594 C 100.757812 28.902344 101.054688 29.5 101.363281 30.113281 C 102.703125 29.964844 102.703125 29.964844 104.070312 29.8125 C 104.070312 30.210938 104.070312 30.609375 104.070312 31.015625 C 103.332031 31.386719 102.808594 31.378906 101.984375 31.394531 C 101.71875 31.402344 101.457031 31.410156 101.1875 31.417969 C 100.460938 31.316406 100.460938 31.316406 99.933594 30.917969 C 99.117188 29.824219 99.1875 28.71875 99.257812 27.402344 C 99.457031 27.203125 99.65625 27.007812 99.859375 26.800781 Z M 99.859375 26.800781 "/>
<path style=" stroke:none;fill-rule:nonzero;fill:rgb(93.725491%,94.509804%,95.686275%);fill-opacity:1;" d="M 140.296875 25.503906 C 141.066406 25.597656 141.066406 25.597656 141.558594 25.96875 C 142.078125 26.640625 142.082031 27.015625 142.0625 27.855469 C 142.0625 28.089844 142.058594 28.320312 142.058594 28.5625 C 141.96875 29.210938 141.96875 29.210938 141.367188 30.113281 C 140.464844 30.207031 140.464844 30.207031 139.5625 30.113281 C 138.960938 29.511719 138.960938 29.511719 138.882812 28.75 C 138.882812 28.453125 138.882812 28.160156 138.886719 27.855469 C 138.882812 27.558594 138.882812 27.265625 138.882812 26.960938 C 138.992188 25.917969 139.253906 25.636719 140.296875 25.503906 Z M 140.296875 25.503906 "/>
<path style=" stroke:none;fill-rule:nonzero;fill:rgb(21.568628%,28.235295%,46.666667%);fill-opacity:1;" d="M 133.546875 21.984375 C 133.746094 22.183594 133.945312 22.378906 134.148438 22.585938 C 134.050781 22.785156 133.949219 22.984375 133.847656 23.1875 C 133.167969 23.28125 132.496094 23.300781 131.808594 23.328125 C 131.109375 23.4375 131.109375 23.4375 130.613281 23.96875 C 129.960938 25.230469 130.09375 26.578125 130.058594 27.96875 C 130.019531 28.28125 129.980469 28.589844 129.9375 28.910156 C 129.640625 29.109375 129.34375 29.304688 129.035156 29.511719 C 128.417969 27.660156 128.316406 25.167969 129.03125 23.324219 C 130.183594 21.75 131.703125 21.609375 133.546875 21.984375 Z M 133.546875 21.984375 "/>
<path style=" stroke:none;fill-rule:nonzero;fill:rgb(94.901961%,93.725491%,95.294118%);fill-opacity:1;" d="M 70.683594 22.285156 C 71.167969 22.273438 71.652344 22.257812 72.148438 22.246094 C 72.421875 22.238281 72.695312 22.234375 72.976562 22.226562 C 73.691406 22.285156 73.691406 22.285156 74.292969 22.886719 C 74.367188 23.941406 74.367188 23.941406 74.292969 24.996094 C 73.691406 25.597656 73.691406 25.597656 72.976562 25.65625 C 72.703125 25.648438 72.429688 25.640625 72.148438 25.632812 C 71.425781 25.617188 71.425781 25.617188 70.683594 25.597656 C 70.683594 24.503906 70.683594 23.410156 70.683594 22.285156 Z M 70.683594 22.285156 "/>
<path style=" stroke:none;fill-rule:nonzero;fill:rgb(30.588236%,36.862746%,52.549022%);fill-opacity:1;" d="M 112.492188 24.691406 C 112.988281 24.691406 113.484375 24.691406 113.996094 24.691406 C 113.996094 26.878906 113.996094 29.066406 113.996094 31.316406 C 113.5 31.316406 113.003906 31.316406 112.492188 31.316406 C 112.492188 29.132812 112.492188 26.945312 112.492188 24.691406 Z M 112.492188 24.691406 "/>
<path style=" stroke:none;fill-rule:nonzero;fill:rgb(18.431373%,25.882354%,43.529412%);fill-opacity:1;" d="M 137.757812 24.691406 C 138.054688 24.691406 138.351562 24.691406 138.660156 24.691406 C 138.660156 24.992188 138.660156 25.289062 138.660156 25.597656 C 138.859375 25.597656 139.058594 25.597656 139.261719 25.597656 C 139.261719 27.1875 139.261719 28.777344 139.261719 30.414062 C 139.0625 30.414062 138.863281 30.414062 138.660156 30.414062 C 138.660156 31.507812 138.660156 32.601562 138.660156 33.726562 C 138.363281 33.726562 138.066406 33.726562 137.757812 33.726562 C 137.757812 30.746094 137.757812 27.765625 137.757812 24.691406 Z M 137.757812 24.691406 "/>
<path style=" stroke:none;fill-rule:nonzero;fill:rgb(28.235295%,35.294119%,52.156866%);fill-opacity:1;" d="M 125.726562 24.390625 C 125.726562 24.589844 125.726562 24.789062 125.726562 24.996094 C 126.125 25.191406 126.519531 25.390625 126.929688 25.597656 C 126.730469 26.191406 126.53125 26.789062 126.328125 27.402344 C 125.234375 27.402344 124.144531 27.402344 123.019531 27.402344 C 123.074219 27.066406 123.132812 26.734375 123.1875 26.386719 C 123.414062 25.347656 123.414062 25.347656 123.019531 24.691406 C 123.910156 24.246094 124.746094 24.375 125.726562 24.390625 Z M 125.726562 24.390625 "/>
<path style=" stroke:none;fill-rule:nonzero;fill:rgb(20.392157%,29.019609%,47.843137%);fill-opacity:1;" d="M 20.753906 35.535156 C 22.640625 35.535156 24.527344 35.535156 26.46875 35.535156 C 26.667969 35.929688 26.867188 36.328125 27.070312 36.738281 C 24.886719 36.738281 22.703125 36.738281 20.453125 36.738281 C 20.550781 36.339844 20.652344 35.945312 20.753906 35.535156 Z M 20.753906 35.535156 "/>
<path style=" stroke:none;fill-rule:nonzero;fill:rgb(27.843139%,35.294119%,52.549022%);fill-opacity:1;" d="M 129.9375 24.691406 C 130.035156 24.691406 130.136719 24.691406 130.238281 24.691406 C 130.253906 25.011719 130.269531 25.332031 130.28125 25.660156 C 130.304688 26.078125 130.328125 26.496094 130.351562 26.914062 C 130.363281 27.230469 130.363281 27.230469 130.378906 27.550781 C 130.417969 28.820312 130.417969 28.820312 131.140625 29.8125 C 131.804688 29.886719 131.804688 29.886719 132.53125 29.851562 C 132.777344 29.84375 133.023438 29.839844 133.277344 29.832031 C 133.558594 29.824219 133.558594 29.824219 133.847656 29.8125 C 133.75 30.109375 133.648438 30.410156 133.546875 30.714844 C 133.746094 30.816406 133.945312 30.914062 134.148438 31.015625 C 133.628906 31.535156 132.957031 31.394531 132.25 31.414062 C 130.664062 31.398438 130.664062 31.398438 129.710938 30.792969 C 129.238281 29.9375 129.394531 29.824219 129.636719 28.910156 C 129.703125 28.183594 129.757812 27.453125 129.804688 26.726562 C 129.832031 26.34375 129.855469 25.964844 129.882812 25.574219 C 129.902344 25.28125 129.917969 24.992188 129.9375 24.691406 Z M 129.9375 24.691406 "/>
<path style=" stroke:none;fill-rule:nonzero;fill:rgb(30.588236%,27.450982%,47.058824%);fill-opacity:1;" d="M 43.914062 32.523438 C 46.496094 32.523438 49.074219 32.523438 51.734375 32.523438 C 51.734375 32.621094 51.734375 32.722656 51.734375 32.824219 C 49.253906 32.824219 46.773438 32.824219 44.214844 32.824219 C 44.214844 33.816406 44.214844 34.8125 44.214844 35.835938 C 44.710938 35.933594 45.207031 36.035156 45.71875 36.136719 C 45.71875 36.632812 45.71875 37.128906 45.71875 37.640625 C 45.125 37.640625 44.527344 37.640625 43.914062 37.640625 C 43.914062 35.953125 43.914062 34.261719 43.914062 32.523438 Z M 43.914062 32.523438 "/>
<path style=" stroke:none;fill-rule:nonzero;fill:rgb(25.490198%,32.156864%,49.019608%);fill-opacity:1;" d="M 105.574219 24.691406 C 106.070312 24.691406 106.566406 24.691406 107.078125 24.691406 C 107.28125 25.230469 107.480469 25.773438 107.679688 26.3125 C 107.847656 26.761719 107.847656 26.761719 108.019531 27.222656 C 108.28125 28.003906 108.28125 28.003906 108.28125 28.609375 C 107.679688 29.097656 107.679688 29.097656 107.078125 29.511719 C 106.828125 28.820312 106.574219 28.132812 106.328125 27.441406 C 106.21875 27.148438 106.21875 27.148438 106.109375 26.847656 C 105.574219 25.363281 105.574219 25.363281 105.574219 24.691406 Z M 105.574219 24.691406 "/>
<path style=" stroke:none;fill-rule:nonzero;fill:rgb(90.980393%,91.764706%,93.725491%);fill-opacity:1;" d="M 101.945312 25.539062 C 102.867188 25.597656 102.867188 25.597656 103.46875 26.199219 C 103.46875 26.597656 103.46875 26.992188 103.46875 27.402344 C 102.476562 27.402344 101.484375 27.402344 100.460938 27.402344 C 100.78125 25.613281 100.78125 25.613281 101.945312 25.539062 Z M 101.945312 25.539062 "/>
<path style=" stroke:none;fill-rule:nonzero;fill:rgb(94.901961%,95.686275%,96.470588%);fill-opacity:1;" d="M 123.921875 25.597656 C 124.863281 25.710938 124.863281 25.710938 125.726562 25.898438 C 125.824219 26.394531 125.925781 26.890625 126.027344 27.402344 C 125.035156 27.402344 124.042969 27.402344 123.019531 27.402344 C 123.320312 26.199219 123.320312 26.199219 123.921875 25.597656 Z M 123.921875 25.597656 "/>
<path style=" stroke:none;fill-rule:nonzero;fill:rgb(20%,27.450982%,45.882353%);fill-opacity:1;" d="M 148.886719 29.8125 C 149.085938 29.8125 149.285156 29.8125 149.488281 29.8125 C 148.960938 30.980469 148.960938 30.980469 148.285156 31.316406 C 147.773438 31.339844 147.257812 31.34375 146.742188 31.335938 C 146.46875 31.335938 146.195312 31.332031 145.914062 31.328125 C 145.703125 31.324219 145.492188 31.320312 145.277344 31.316406 C 145.277344 31.019531 145.277344 30.722656 145.277344 30.414062 C 145.511719 30.398438 145.746094 30.378906 145.992188 30.359375 C 146.292969 30.335938 146.597656 30.308594 146.914062 30.28125 C 147.214844 30.257812 147.519531 30.234375 147.832031 30.207031 C 148.566406 30.195312 148.566406 30.195312 148.886719 29.8125 Z M 148.886719 29.8125 "/>
<path style=" stroke:none;fill-rule:nonzero;fill:rgb(23.529412%,30.980393%,49.803922%);fill-opacity:1;" d="M 117.605469 24.390625 C 119.234375 24.28125 119.234375 24.28125 120.125 24.84375 C 120.285156 24.992188 120.445312 25.140625 120.613281 25.296875 C 120.515625 25.59375 120.414062 25.890625 120.3125 26.199219 C 119.417969 26.097656 118.527344 26 117.605469 25.898438 C 117.605469 25.402344 117.605469 24.902344 117.605469 24.390625 Z M 117.605469 24.390625 "/>
<path style=" stroke:none;fill-rule:nonzero;fill:rgb(88.627452%,86.274511%,89.411765%);fill-opacity:1;" d="M 35.792969 42.460938 C 36.289062 42.558594 36.785156 42.660156 37.296875 42.761719 C 37.199219 43.257812 37.097656 43.753906 36.996094 44.265625 C 36.5 44.167969 36.003906 44.066406 35.492188 43.964844 C 35.589844 43.46875 35.691406 42.972656 35.792969 42.460938 Z M 35.792969 42.460938 "/>
<path style=" stroke:none;fill-rule:nonzero;fill:rgb(34.117648%,39.607844%,54.509807%);fill-opacity:1;" d="M 100.460938 24.691406 C 100.660156 24.792969 100.859375 24.890625 101.0625 24.996094 C 100.964844 25.179688 100.863281 25.367188 100.761719 25.558594 C 100.417969 26.171875 100.417969 26.171875 100.460938 26.800781 C 100.164062 27 99.867188 27.199219 99.558594 27.402344 C 99.339844 28.328125 99.339844 28.328125 99.257812 29.210938 C 99.160156 29.210938 99.058594 29.210938 98.957031 29.210938 C 98.726562 26.902344 98.726562 26.902344 99.292969 25.917969 C 99.710938 25.425781 99.710938 25.425781 100.460938 24.691406 Z M 100.460938 24.691406 "/>
<path style=" stroke:none;fill-rule:nonzero;fill:rgb(29.803923%,36.470589%,52.549022%);fill-opacity:1;" d="M 107.078125 26.800781 C 107.375 26.902344 107.671875 27 107.980469 27.101562 C 108.078125 27.597656 108.179688 28.097656 108.28125 28.609375 C 107.882812 28.90625 107.488281 29.203125 107.078125 29.511719 C 106.738281 27.480469 106.738281 27.480469 107.078125 26.800781 Z M 107.078125 26.800781 "/>
<path style=" stroke:none;fill-rule:nonzero;fill:rgb(28.627452%,36.078432%,53.333336%);fill-opacity:1;" d="M 126.929688 30.113281 C 126.832031 30.410156 126.730469 30.710938 126.628906 31.015625 C 126.132812 31.117188 125.636719 31.214844 125.125 31.316406 C 125.027344 31.121094 124.925781 30.921875 124.824219 30.714844 C 124.527344 30.515625 124.230469 30.320312 123.921875 30.113281 C 125.914062 29.773438 125.914062 29.773438 126.929688 30.113281 Z M 126.929688 30.113281 "/>
<path style=" stroke:none;fill-rule:nonzero;fill:rgb(28.627452%,36.862746%,54.11765%);fill-opacity:1;" d="M 120.3125 29.511719 C 120.410156 29.910156 120.511719 30.304688 120.613281 30.714844 C 120.019531 30.914062 119.421875 31.113281 118.808594 31.316406 C 118.808594 31.121094 118.808594 30.921875 118.808594 30.714844 C 118.511719 30.515625 118.214844 30.320312 117.90625 30.113281 C 119.636719 29.511719 119.636719 29.511719 120.3125 29.511719 Z M 120.3125 29.511719 "/>
<path style=" stroke:none;fill-rule:nonzero;fill:rgb(16.470589%,24.313726%,44.705883%);fill-opacity:1;" d="M 94.613281 22.265625 C 94.957031 22.269531 95.296875 22.277344 95.648438 22.285156 C 95.746094 22.679688 95.847656 23.078125 95.949219 23.488281 C 94.824219 23.339844 94.199219 23.226562 93.242188 22.585938 C 93.542969 22.285156 93.542969 22.285156 94.613281 22.265625 Z M 94.613281 22.265625 "/>
<path style=" stroke:none;fill-rule:nonzero;fill:rgb(98.431373%,98.823529%,98.823529%);fill-opacity:1;" d="M 44.214844 36.136719 C 44.710938 36.136719 45.207031 36.136719 45.71875 36.136719 C 45.71875 36.632812 45.71875 37.128906 45.71875 37.640625 C 45.222656 37.640625 44.726562 37.640625 44.214844 37.640625 C 44.214844 37.144531 44.214844 36.648438 44.214844 36.136719 Z M 44.214844 36.136719 "/>
<path style=" stroke:none;fill-rule:nonzero;fill:rgb(16.078432%,23.529412%,42.352942%);fill-opacity:1;" d="M 126.628906 25.898438 C 127.066406 26.695312 127.230469 27.070312 127.230469 28.003906 C 125.941406 28.003906 124.648438 28.003906 123.320312 28.003906 C 123.320312 27.90625 123.320312 27.808594 123.320312 27.703125 C 124.660156 27.554688 124.660156 27.554688 126.027344 27.402344 C 126.226562 26.90625 126.425781 26.410156 126.628906 25.898438 Z M 126.628906 25.898438 "/>
<path style=" stroke:none;fill-rule:nonzero;fill:rgb(16.470589%,23.921569%,43.137255%);fill-opacity:1;" d="M 103.769531 27.101562 C 104.066406 27.101562 104.363281 27.101562 104.671875 27.101562 C 104.671875 27.402344 104.671875 27.699219 104.671875 28.003906 C 103.382812 28.003906 102.089844 28.003906 100.761719 28.003906 C 100.761719 27.90625 100.761719 27.808594 100.761719 27.703125 C 101.050781 27.675781 101.050781 27.675781 101.34375 27.648438 C 101.714844 27.613281 101.714844 27.613281 102.097656 27.574219 C 102.34375 27.546875 102.59375 27.523438 102.847656 27.5 C 103.464844 27.46875 103.464844 27.46875 103.769531 27.101562 Z M 103.769531 27.101562 "/>
<path style=" stroke:none;fill-rule:nonzero;fill:rgb(25.882354%,32.941177%,50.980395%);fill-opacity:1;" d="M 112.492188 21.984375 C 112.988281 21.984375 113.484375 21.984375 113.996094 21.984375 C 113.996094 22.378906 113.996094 22.777344 113.996094 23.1875 C 113.5 23.1875 113.003906 23.1875 112.492188 23.1875 C 112.492188 22.789062 112.492188 22.390625 112.492188 21.984375 Z M 112.492188 21.984375 "/>
<path style=" stroke:none;fill-rule:nonzero;fill:rgb(38.431373%,44.705883%,59.215689%);fill-opacity:1;" d="M 144.675781 29.8125 C 145.769531 29.910156 146.859375 30.011719 147.984375 30.113281 C 147.984375 30.214844 147.984375 30.3125 147.984375 30.414062 C 147.089844 30.414062 146.199219 30.414062 145.277344 30.414062 C 145.179688 30.613281 145.078125 30.8125 144.976562 31.015625 C 144.777344 30.917969 144.578125 30.816406 144.375 30.714844 C 144.472656 30.417969 144.574219 30.121094 144.675781 29.8125 Z M 144.675781 29.8125 "/>
<path style=" stroke:none;fill-rule:nonzero;fill:rgb(14.901961%,22.352941%,42.745098%);fill-opacity:1;" d="M 101.832031 24.675781 C 102.195312 24.683594 102.195312 24.683594 102.566406 24.691406 C 102.566406 24.890625 102.566406 25.089844 102.566406 25.296875 C 101.769531 25.621094 100.976562 25.925781 100.160156 26.199219 C 100.886719 24.699219 100.886719 24.699219 101.832031 24.675781 Z M 101.832031 24.675781 "/>
<path style=" stroke:none;fill-rule:nonzero;fill:rgb(15.294118%,24.313726%,44.313726%);fill-opacity:1;" d="M 117.304688 30.113281 C 118.199219 30.261719 118.199219 30.261719 119.109375 30.414062 C 119.011719 30.714844 118.910156 31.011719 118.808594 31.316406 C 118.3125 31.21875 117.816406 31.121094 117.304688 31.015625 C 117.304688 30.71875 117.304688 30.421875 117.304688 30.113281 Z M 117.304688 30.113281 "/>
<path style=" stroke:none;fill-rule:nonzero;fill:rgb(16.862746%,24.705882%,43.137255%);fill-opacity:1;" d="M 110.085938 24.691406 C 110.484375 24.691406 110.878906 24.691406 111.289062 24.691406 C 111.191406 25.191406 111.089844 25.6875 110.988281 26.199219 C 110.691406 26.199219 110.394531 26.199219 110.085938 26.199219 C 110.085938 25.703125 110.085938 25.207031 110.085938 24.691406 Z M 110.085938 24.691406 "/>
</g>
</svg>
